<svg xmlns="http://www.w3.org/2000/svg" width="37" height="38" viewBox="0 0 37 38">
    <path fill="#FFF" fill-rule="nonzero" d="M36.437 34.612l-9.12-9.406a15.216 15.216 0 0 0 3.63-9.864C30.946 6.882 24.004 0 15.472 0S0 6.883 0 15.342c0 8.46 6.941 15.343 15.473 15.343 3.203 0 6.255-.958 8.865-2.776l9.19 9.477c.385.396.901.614 1.455.614.524 0 1.021-.198 1.399-.558a1.992 1.992 0 0 0 .055-2.83zM15.473 4.002c6.307 0 11.437 5.087 11.437 11.34 0 6.254-5.13 11.34-11.437 11.34-6.306 0-11.437-5.086-11.437-11.34 0-6.253 5.13-11.34 11.437-11.34z"/>
</svg>
