<svg xmlns="http://www.w3.org/2000/svg" width="89" height="44" viewBox="0 0 89 44">
    <g fill="#FFF" fill-rule="evenodd">
        <path d="M62.583 19.843h3.532c1.095 0 1.966-.15 2.617-.456.648-.304 1.149-.74 1.49-1.31.347-.569.58-1.27.706-2.103.116-.831.183-1.796.183-2.891 0-1.097-.067-2.06-.183-2.893-.126-.834-.38-1.544-.765-2.13a3.426 3.426 0 0 0-1.614-1.312c-.689-.283-1.6-.428-2.742-.428h-3.224v13.523zM56.377.474h9.98c7.308 0 10.96 4.243 10.96 12.73 0 2.518-.397 4.682-1.19 6.49-.786 1.805-2.18 3.254-4.166 4.354l6.695 19.794h-6.577L66.3 25.326h-3.716v18.516h-6.206V.474zM82.49 43.84h6.208V.474h-6.209zM0 1v43h19v-6.161H6.375V1zM44.977 1l-7.916 22.768h-.12L28.967 1H23v43h6.208V17.85h.12l6.092 18.479h3.1l6.149-18.48h.123V44H51V1z"/>
    </g>
</svg>
